<?xml version="1.0" encoding="UTF-8"?>
<!DOCTYPE svg PUBLIC "-//W3C//DTD SVG 1.1//EN" "http://www.w3.org/Graphics/SVG/1.1/DTD/svg11.dtd">
<svg xmlns="http://www.w3.org/2000/svg" version="1.1" width="968px" height="968px" style="shape-rendering:geometricPrecision; text-rendering:geometricPrecision; image-rendering:optimizeQuality; fill-rule:evenodd; clip-rule:evenodd" xmlns:xlink="http://www.w3.org/1999/xlink">
<g><path style="opacity:0.024" fill="#43301a" d="M 908.5,211.5 C 906.5,212.5 904.5,213.5 902.5,214.5C 903.81,212.852 905.143,211.186 906.5,209.5C 908.017,208.089 909.351,208.256 910.5,210C 909.956,210.717 909.289,211.217 908.5,211.5 Z"/></g>
<g><path style="opacity:0.067" fill="#974a32" d="M 73.5,226.5 C 73.634,228.292 73.3007,229.958 72.5,231.5C 68.0297,225.513 63.6964,219.346 59.5,213C 60.8333,212.333 62.1667,212.333 63.5,213C 66.6651,217.659 69.9984,222.159 73.5,226.5 Z"/></g>
<g><path style="opacity:0.427" fill="#c04d2c" d="M 908.5,211.5 C 905.978,217.837 902.478,223.504 898,228.5C 894.953,230.918 892.62,233.918 891,237.5C 890.184,238.823 889.017,239.489 887.5,239.5C 887.027,238.094 886.027,237.427 884.5,237.5C 890.261,229.643 896.261,221.977 902.5,214.5C 904.5,213.5 906.5,212.5 908.5,211.5 Z"/></g>
<g><path style="opacity:0.48" fill="#d05022" d="M 73.5,226.5 C 81.3936,235.274 89.0603,244.274 96.5,253.5C 95.1667,254.5 93.8333,255.5 92.5,256.5C 85.894,248.215 79.2274,239.882 72.5,231.5C 73.3007,229.958 73.634,228.292 73.5,226.5 Z"/></g>
<g><path style="opacity:0.988" fill="#e93f0c" d="M 96.5,253.5 C 136.612,297.307 184.612,328.974 240.5,348.5C 239.883,348.611 239.383,348.944 239,349.5C 229.798,346.818 220.632,343.985 211.5,341C 210.122,339.287 208.455,337.953 206.5,337C 198.116,334.623 190.116,331.29 182.5,327C 180.833,325.5 179.167,324 177.5,322.5C 169.546,317.905 161.546,313.405 153.5,309C 152.547,307.045 151.213,305.378 149.5,304C 145.553,301.72 141.887,299.053 138.5,296C 137.552,295.517 136.552,295.351 135.5,295.5C 135.351,296.552 135.517,297.552 136,298.5C 139.022,300.688 141.522,303.355 143.5,306.5C 150.196,310.024 156.196,314.524 161.5,320C 164.514,321.776 167.514,323.443 170.5,325C 171.728,326.49 171.728,327.99 170.5,329.5C 141.329,308.665 115.329,284.332 92.5,256.5C 93.8333,255.5 95.1667,254.5 96.5,253.5 Z"/></g>
<g><path style="opacity:0.987" fill="#e84312" d="M 884.5,237.5 C 886.027,237.427 887.027,238.094 887.5,239.5C 884.182,245.455 880.349,251.122 876,256.5C 872.908,257.923 870.908,260.257 870,263.5C 865.688,267.481 861.688,271.814 858,276.5C 847.804,287.03 837.304,297.197 826.5,307C 825.255,307.791 823.922,308.291 822.5,308.5C 822.561,305.95 823.894,304.45 826.5,304C 841.871,289.241 840.871,287.908 823.5,300C 822.207,300.49 820.873,300.657 819.5,300.5C 843.428,281.906 865.095,260.906 884.5,237.5 Z"/></g>
<g><path style="opacity:1" fill="#f43a04" d="M 240.5,348.5 C 256.766,354.151 273.1,359.651 289.5,365C 290.056,365.383 290.389,365.883 290.5,366.5C 290.586,367.496 290.252,368.329 289.5,369C 300.86,371.977 312.027,375.477 323,379.5C 324.049,378.483 325.216,378.316 326.5,379C 327.56,380.298 328.726,381.465 330,382.5C 340.241,385.803 350.408,389.303 360.5,393C 362.066,393.765 363.399,393.598 364.5,392.5C 369.05,394.686 373.717,396.686 378.5,398.5C 380.144,399.316 381.31,400.65 382,402.5C 380.325,394.077 376.658,386.41 371,379.5C 368.781,377.28 366.281,375.447 363.5,374C 361.632,371.172 359.466,368.672 357,366.5C 356.283,367.044 355.783,367.711 355.5,368.5C 349.306,363.577 342.973,358.911 336.5,354.5C 335.945,352.271 334.611,350.605 332.5,349.5C 333.723,348.386 335.056,348.219 336.5,349C 338.846,352.001 341.846,353.001 345.5,352C 344.944,351.617 344.611,351.117 344.5,350.5C 352.485,354.158 359.819,358.825 366.5,364.5C 366.539,365.583 366.873,366.583 367.5,367.5C 372.166,371.896 376.833,376.229 381.5,380.5C 385.171,386.159 389.171,391.492 393.5,396.5C 393.894,397.967 394.227,399.467 394.5,401C 393.678,403.472 393.011,405.972 392.5,408.5C 390.339,408.826 388.506,409.826 387,411.5C 383.779,417.723 379.445,423.056 374,427.5C 367.509,425.505 361.676,422.339 356.5,418C 352.785,416.705 349.118,415.538 345.5,414.5C 330.741,407.621 316.075,400.454 301.5,393C 265.726,379.41 230.726,364.076 196.5,347C 187.606,341.232 178.94,335.398 170.5,329.5C 171.728,327.99 171.728,326.49 170.5,325C 167.514,323.443 164.514,321.776 161.5,320C 156.196,314.524 150.196,310.024 143.5,306.5C 141.522,303.355 139.022,300.688 136,298.5C 135.517,297.552 135.351,296.552 135.5,295.5C 136.552,295.351 137.552,295.517 138.5,296C 141.887,299.053 145.553,301.72 149.5,304C 151.213,305.378 152.547,307.045 153.5,309C 161.546,313.405 169.546,317.905 177.5,322.5C 179.167,324 180.833,325.5 182.5,327C 190.116,331.29 198.116,334.623 206.5,337C 208.455,337.953 210.122,339.287 211.5,341C 220.632,343.985 229.798,346.818 239,349.5C 239.383,348.944 239.883,348.611 240.5,348.5 Z"/></g>
<g><path style="opacity:1" fill="#f33b05" d="M 822.5,308.5 C 819.44,312.21 816.107,315.71 812.5,319C 806.604,322.376 800.937,326.042 795.5,330C 794.833,331 794.167,332 793.5,333C 782.099,339.941 770.766,346.774 759.5,353.5C 728.465,367.902 696.965,381.235 665,393.5C 650.711,400.983 636.211,407.983 621.5,414.5C 612.002,418.084 603.002,422.418 594.5,427.5C 591.827,425.273 588.827,423.606 585.5,422.5C 585.67,421.178 585.337,420.011 584.5,419C 578.841,416.192 573.841,412.359 569.5,407.5C 571.687,403.08 574.02,398.746 576.5,394.5C 579.415,390.898 581.748,386.898 583.5,382.5C 583.376,381.893 583.043,381.56 582.5,381.5C 582.833,380.5 583.5,379.833 584.5,379.5C 585.251,380.573 586.251,380.74 587.5,380C 598.833,367.987 611.833,358.321 626.5,351C 627.944,350.219 629.277,350.386 630.5,351.5C 615.266,360.067 602.933,371.733 593.5,386.5C 592.125,390.253 590.458,393.92 588.5,397.5C 588.833,397.833 589.167,398.167 589.5,398.5C 604.595,391.521 619.928,385.021 635.5,379C 668.321,368.299 700.988,357.299 733.5,346C 748.883,339.201 764.216,332.201 779.5,325C 793.023,317.075 806.357,308.908 819.5,300.5C 820.873,300.657 822.207,300.49 823.5,300C 840.871,287.908 841.871,289.241 826.5,304C 823.894,304.45 822.561,305.95 822.5,308.5 Z"/></g>
<g><path style="opacity:0.227" fill="#955033" d="M 646.5,346.5 C 647.038,344.883 647.371,343.216 647.5,341.5C 650.009,340.887 652.509,340.22 655,339.5C 656.188,340.563 656.688,341.897 656.5,343.5C 652.963,343.942 649.63,344.942 646.5,346.5 Z"/></g>
<g><path style="opacity:0.298" fill="#8b4e30" d="M 321.5,341.5 C 320.85,343.435 320.517,345.435 320.5,347.5C 316.995,345.384 313.328,343.551 309.5,342C 310.333,341.167 311.167,340.333 312,339.5C 315.085,340.432 318.252,341.099 321.5,341.5 Z"/></g>
<g><path style="opacity:0.848" fill="#cd471b" d="M 647.5,341.5 C 647.371,343.216 647.038,344.883 646.5,346.5C 626.616,354.899 610.116,367.566 597,384.5C 596.184,385.823 595.017,386.489 593.5,386.5C 602.933,371.733 615.266,360.067 630.5,351.5C 629.277,350.386 627.944,350.219 626.5,351C 611.833,358.321 598.833,367.987 587.5,380C 586.251,380.74 585.251,380.573 584.5,379.5C 601.59,360.451 622.59,347.784 647.5,341.5 Z"/></g>
<g><path style="opacity:0.6" fill="#c64719" d="M 321.5,341.5 C 329.271,344.311 336.938,347.311 344.5,350.5C 344.611,351.117 344.944,351.617 345.5,352C 341.846,353.001 338.846,352.001 336.5,349C 335.056,348.219 333.723,348.386 332.5,349.5C 334.611,350.605 335.945,352.271 336.5,354.5C 331.67,351.087 326.337,348.753 320.5,347.5C 320.517,345.435 320.85,343.435 321.5,341.5 Z"/></g>
<g><path style="opacity:0.439" fill="#c24717" d="M 366.5,364.5 C 374.15,370.65 381.317,377.317 388,384.5C 391.835,388.17 394.669,392.504 396.5,397.5C 395.609,396.89 394.609,396.557 393.5,396.5C 389.171,391.492 385.171,386.159 381.5,380.5C 376.833,376.229 372.166,371.896 367.5,367.5C 366.873,366.583 366.539,365.583 366.5,364.5 Z"/></g>
<g><path style="opacity:0.922" fill="#e54010" d="M 290.5,366.5 C 315.964,373.352 340.631,382.018 364.5,392.5C 363.399,393.598 362.066,393.765 360.5,393C 350.408,389.303 340.241,385.803 330,382.5C 328.726,381.465 327.56,380.298 326.5,379C 325.216,378.316 324.049,378.483 323,379.5C 312.027,375.477 300.86,371.977 289.5,369C 290.252,368.329 290.586,367.496 290.5,366.5 Z"/></g>
<g><path style="opacity:0.192" fill="#a05032" d="M 721.5,402.5 C 720.549,401.081 720.216,399.415 720.5,397.5C 735.727,390.644 751.061,383.978 766.5,377.5C 770.145,378.489 770.145,379.989 766.5,382C 751.206,388.368 736.206,395.201 721.5,402.5 Z"/></g>
<g><path style="opacity:0.145" fill="#8a472d" d="M 241.5,395.5 C 240.167,396.167 239.167,397.167 238.5,398.5C 224.759,392.796 211.426,386.296 198.5,379C 199.93,377.56 201.597,377.226 203.5,378C 216.647,383.078 229.314,388.911 241.5,395.5 Z"/></g>
<g><path style="opacity:0.576" fill="#c94618" d="M 378.5,398.5 C 378.938,398.565 379.272,398.399 379.5,398C 376.304,393.636 373.304,389.136 370.5,384.5C 366.211,378.543 361.211,373.21 355.5,368.5C 355.783,367.711 356.283,367.044 357,366.5C 359.466,368.672 361.632,371.172 363.5,374C 366.281,375.447 368.781,377.28 371,379.5C 376.658,386.41 380.325,394.077 382,402.5C 381.31,400.65 380.144,399.316 378.5,398.5 Z"/></g>
<g><path style="opacity:0.953" fill="#d44b15" d="M 582.5,381.5 C 583.043,381.56 583.376,381.893 583.5,382.5C 581.748,386.898 579.415,390.898 576.5,394.5C 572.994,397.655 570.327,401.489 568.5,406C 566.564,406.813 564.564,407.313 562.5,407.5C 568.815,398.524 575.481,389.857 582.5,381.5 Z"/></g>
<g><path style="opacity:1" fill="#f74f05" d="M 393.5,396.5 C 394.609,396.557 395.609,396.89 396.5,397.5C 398.391,401.883 400.058,406.383 401.5,411C 399.355,414.791 397.355,418.624 395.5,422.5C 394.325,422.281 393.325,422.614 392.5,423.5C 391.422,426.207 390.422,428.874 389.5,431.5C 386.937,432.2 384.437,433.2 382,434.5C 380.003,433.34 378.169,433.34 376.5,434.5C 367.193,428.175 357.527,422.342 347.5,417C 346.619,416.292 345.953,415.458 345.5,414.5C 349.118,415.538 352.785,416.705 356.5,418C 361.676,422.339 367.509,425.505 374,427.5C 379.445,423.056 383.779,417.723 387,411.5C 388.506,409.826 390.339,408.826 392.5,408.5C 393.011,405.972 393.678,403.472 394.5,401C 394.227,399.467 393.894,397.967 393.5,396.5 Z"/></g>
<g><path style="opacity:0.696" fill="#c7451b" d="M 241.5,395.5 C 257.074,401.581 272.407,408.248 287.5,415.5C 284.707,415.746 281.707,415.913 278.5,416C 284.845,420.106 291.512,423.44 298.5,426C 301.02,427.763 303.353,429.763 305.5,432C 307.974,432.113 309.974,433.113 311.5,435C 311.272,435.399 310.938,435.565 310.5,435.5C 286.54,423.186 262.54,410.853 238.5,398.5C 239.167,397.167 240.167,396.167 241.5,395.5 Z"/></g>
<g><path style="opacity:1" fill="#f85707" d="M 576.5,394.5 C 574.02,398.746 571.687,403.08 569.5,407.5C 573.841,412.359 578.841,416.192 584.5,419C 585.337,420.011 585.67,421.178 585.5,422.5C 588.827,423.606 591.827,425.273 594.5,427.5C 603.002,422.418 612.002,418.084 621.5,414.5C 609.215,422.428 596.882,430.428 584.5,438.5C 581.303,438.973 578.137,439.639 575,440.5C 574.127,440.265 573.293,439.931 572.5,439.5C 566.645,434.477 560.645,429.644 554.5,425C 555.252,424.329 555.586,423.496 555.5,422.5C 557.639,418.102 559.972,413.768 562.5,409.5C 562.376,408.893 562.043,408.56 561.5,408.5C 561.5,407.833 561.833,407.5 562.5,407.5C 564.564,407.313 566.564,406.813 568.5,406C 570.327,401.489 572.994,397.655 576.5,394.5 Z"/></g>
<g><path style="opacity:0.847" fill="#d2621b" d="M 561.5,408.5 C 562.043,408.56 562.376,408.893 562.5,409.5C 559.972,413.768 557.639,418.102 555.5,422.5C 551.454,426.217 547.454,429.884 543.5,433.5C 542.609,434.11 541.609,434.443 540.5,434.5C 540.167,434.5 539.833,434.5 539.5,434.5C 546.517,425.49 553.85,416.823 561.5,408.5 Z"/></g>
<g><path style="opacity:0.616" fill="#c27120" d="M 452.5,436.5 C 449.853,433.236 447.186,429.903 444.5,426.5C 444.421,428.128 444.088,429.795 443.5,431.5C 441.619,428.094 439.452,424.761 437,421.5C 435.259,418.691 434.092,415.691 433.5,412.5C 436.927,413.392 439.761,415.392 442,418.5C 444.941,423.772 448.274,428.772 452,433.5C 452.483,434.448 452.649,435.448 452.5,436.5 Z"/></g>
<g><path style="opacity:0.99" fill="#dd4211" d="M 287.5,415.5 C 302.682,422.259 317.682,429.259 332.5,436.5C 332.631,437.376 332.298,438.043 331.5,438.5C 325.526,435.792 319.359,433.459 313,431.5C 311.743,431.85 311.409,432.517 312,433.5C 314.675,435.446 317.508,437.113 320.5,438.5C 321.386,439.325 321.719,440.325 321.5,441.5C 319.692,441.509 318.025,441.009 316.5,440C 314.253,438.723 312.253,437.223 310.5,435.5C 310.938,435.565 311.272,435.399 311.5,435C 309.974,433.113 307.974,432.113 305.5,432C 303.353,429.763 301.02,427.763 298.5,426C 291.512,423.44 284.845,420.106 278.5,416C 281.707,415.913 284.707,415.746 287.5,415.5 Z"/></g>
<g><path style="opacity:1" fill="#fa660a" d="M 396.5,397.5 C 399.544,399.909 401.878,402.909 403.5,406.5C 403.343,407.873 403.51,409.207 404,410.5C 407.288,416.36 411.288,421.693 416,426.5C 416.667,427.833 416.667,429.167 416,430.5C 410.652,435.681 405.485,441.015 400.5,446.5C 396.921,444.973 393.254,443.64 389.5,442.5C 385.027,440.095 380.694,437.429 376.5,434.5C 378.169,433.34 380.003,433.34 382,434.5C 384.437,433.2 386.937,432.2 389.5,431.5C 390.422,428.874 391.422,426.207 392.5,423.5C 393.325,422.614 394.325,422.281 395.5,422.5C 397.355,418.624 399.355,414.791 401.5,411C 400.058,406.383 398.391,401.883 396.5,397.5 Z"/></g>
<g><path style="opacity:0.829" fill="#e58525" d="M 516.5,444.5 C 518.332,441.069 519.332,437.569 519.5,434C 519.333,433.5 519.167,433 519,432.5C 517.981,433.687 516.814,434.687 515.5,435.5C 514.893,435.376 514.56,435.043 514.5,434.5C 518.732,427.718 523.232,421.051 528,414.5C 530.12,411.614 532.287,411.281 534.5,413.5C 528.236,423.697 522.236,434.03 516.5,444.5 Z"/></g>
<g><path style="opacity:0.247" fill="#d34617" d="M 720.5,397.5 C 720.216,399.415 720.549,401.081 721.5,402.5C 700.017,413.742 678.35,424.742 656.5,435.5C 656.369,434.761 656.536,434.094 657,433.5C 659.881,432.788 662.048,431.122 663.5,428.5C 662.277,427.386 660.944,427.219 659.5,428C 644.45,434.175 629.783,441.008 615.5,448.5C 610.663,451.084 605.663,453.417 600.5,455.5C 599.702,455.043 599.369,454.376 599.5,453.5C 639.454,434.068 679.788,415.401 720.5,397.5 Z"/></g>
<g><path style="opacity:0.998" fill="#f44506" d="M 656.5,435.5 C 653.873,436.105 651.207,436.605 648.5,437C 643.395,440.701 638.062,444.035 632.5,447C 628.731,450.027 625.064,453.194 621.5,456.5C 620.167,456.5 618.833,456.5 617.5,456.5C 614.731,456.8 612.231,457.8 610,459.5C 608.629,458.419 607.129,457.585 605.5,457C 606.252,456.329 606.586,455.496 606.5,454.5C 610.37,453.737 613.37,451.737 615.5,448.5C 629.783,441.008 644.45,434.175 659.5,428C 660.944,427.219 662.277,427.386 663.5,428.5C 662.048,431.122 659.881,432.788 657,433.5C 656.536,434.094 656.369,434.761 656.5,435.5 Z"/></g>
<g><path style="opacity:1" fill="#f97b11" d="M 403.5,406.5 C 412.721,418.317 422.387,429.65 432.5,440.5C 430.904,442.832 429.738,445.499 429,448.5C 425.435,451.727 422.268,455.227 419.5,459C 416.927,459.428 414.594,459.094 412.5,458C 413.822,459.976 415.488,461.476 417.5,462.5C 416.833,462.5 416.167,462.5 415.5,462.5C 413.745,461.928 412.078,461.094 410.5,460C 403.31,454.302 396.31,448.469 389.5,442.5C 393.254,443.64 396.921,444.973 400.5,446.5C 405.485,441.015 410.652,435.681 416,430.5C 416.667,429.167 416.667,427.833 416,426.5C 411.288,421.693 407.288,416.36 404,410.5C 403.51,409.207 403.343,407.873 403.5,406.5 Z"/></g>
<g><path style="opacity:1" fill="#fa730f" d="M 555.5,422.5 C 555.586,423.496 555.252,424.329 554.5,425C 560.645,429.644 566.645,434.477 572.5,439.5C 573.293,439.931 574.127,440.265 575,440.5C 578.137,439.639 581.303,438.973 584.5,438.5C 577.277,443.798 569.944,449.132 562.5,454.5C 561.167,454.167 559.833,453.833 558.5,453.5C 555.943,452.812 553.609,451.646 551.5,450C 548.382,446.972 545.049,444.138 541.5,441.5C 541.167,441 540.833,440.5 540.5,440C 541.769,437.916 542.769,435.749 543.5,433.5C 547.454,429.884 551.454,426.217 555.5,422.5 Z"/></g>
<g><path style="opacity:0.286" fill="#d64d1a" d="M 656.5,435.5 C 656.631,436.376 656.298,437.043 655.5,437.5C 648.607,441.567 641.607,445.401 634.5,449C 633.953,449.925 633.287,450.758 632.5,451.5C 628.92,453.458 625.253,455.125 621.5,456.5C 625.064,453.194 628.731,450.027 632.5,447C 638.062,444.035 643.395,440.701 648.5,437C 651.207,436.605 653.873,436.105 656.5,435.5 Z"/></g>
<g><path style="opacity:0.982" fill="#ea9a25" d="M 516.5,444.5 C 514.494,450.849 512.494,457.182 510.5,463.5C 509.284,461.153 509.284,458.653 510.5,456C 508.646,454.71 508.313,453.21 509.5,451.5C 508.998,450.479 508.332,450.312 507.5,451C 505.38,456.735 502.88,462.235 500,467.5C 499.503,469.81 499.337,472.143 499.5,474.5C 498.833,474.5 498.167,474.5 497.5,474.5C 500.463,459.923 506.13,446.589 514.5,434.5C 514.56,435.043 514.893,435.376 515.5,435.5C 516.814,434.687 517.981,433.687 519,432.5C 519.167,433 519.333,433.5 519.5,434C 519.332,437.569 518.332,441.069 516.5,444.5 Z"/></g>
<g><path style="opacity:1" fill="#fd8512" d="M 543.5,433.5 C 542.769,435.749 541.769,437.916 540.5,440C 540.833,440.5 541.167,441 541.5,441.5C 545.049,444.138 548.382,446.972 551.5,450C 553.609,451.646 555.943,452.812 558.5,453.5C 557.933,455.03 557.267,456.53 556.5,458C 552.606,459.76 548.772,461.594 545,463.5C 539.923,460.276 535.09,456.443 530.5,452C 533.646,451.89 534.646,450.557 533.5,448C 535.974,443.552 538.307,439.052 540.5,434.5C 541.609,434.443 542.609,434.11 543.5,433.5 Z"/></g>
<g><path style="opacity:0.999" fill="#f14608" d="M 332.5,436.5 C 335.328,437.655 337.995,438.989 340.5,440.5C 340.821,442.048 341.821,442.715 343.5,442.5C 343.5,443.5 343.5,444.5 343.5,445.5C 345.199,445.34 346.866,445.506 348.5,446C 351.319,447.722 353.986,449.722 356.5,452C 357.448,452.483 358.448,452.649 359.5,452.5C 360.301,454.042 360.634,455.708 360.5,457.5C 358.678,457.831 357.011,458.498 355.5,459.5C 353.315,459.296 351.315,458.63 349.5,457.5C 347.958,456.699 346.292,456.366 344.5,456.5C 337.959,452.462 331.293,448.629 324.5,445C 323.29,443.961 322.29,442.794 321.5,441.5C 321.719,440.325 321.386,439.325 320.5,438.5C 317.508,437.113 314.675,435.446 312,433.5C 311.409,432.517 311.743,431.85 313,431.5C 319.359,433.459 325.526,435.792 331.5,438.5C 332.298,438.043 332.631,437.376 332.5,436.5 Z"/></g>
<g><path style="opacity:1" fill="#f89119" d="M 539.5,434.5 C 539.833,434.5 540.167,434.5 540.5,434.5C 538.307,439.052 535.974,443.552 533.5,448C 534.646,450.557 533.646,451.89 530.5,452C 535.09,456.443 539.923,460.276 545,463.5C 548.772,461.594 552.606,459.76 556.5,458C 557.267,456.53 557.933,455.03 558.5,453.5C 559.833,453.833 561.167,454.167 562.5,454.5C 559.029,458.621 554.695,461.621 549.5,463.5C 545.191,465.495 540.858,467.495 536.5,469.5C 530.929,468.671 526.595,466.005 523.5,461.5C 523.923,458.892 524.923,456.558 526.5,454.5C 525.754,453.264 525.421,451.93 525.5,450.5C 529.715,444.711 534.382,439.378 539.5,434.5 Z"/></g>
<g><path style="opacity:0.306" fill="#b8561f" d="M 344.5,456.5 C 346.292,456.366 347.958,456.699 349.5,457.5C 352.569,459.654 355.569,461.987 358.5,464.5C 359.773,465.257 359.773,465.923 358.5,466.5C 353.531,463.522 348.865,460.189 344.5,456.5 Z"/></g>
<g><path style="opacity:1" fill="#fc9215" d="M 432.5,440.5 C 434.923,441.95 436.923,443.95 438.5,446.5C 439.591,450.683 440.925,454.85 442.5,459C 439.061,461.527 436.061,464.527 433.5,468C 427.566,467.895 422.232,466.062 417.5,462.5C 415.488,461.476 413.822,459.976 412.5,458C 414.594,459.094 416.927,459.428 419.5,459C 422.268,455.227 425.435,451.727 429,448.5C 429.738,445.499 430.904,442.832 432.5,440.5 Z"/></g>
<g><path style="opacity:1" fill="#ee981a" d="M 438.5,446.5 C 444.149,452.459 448.815,459.125 452.5,466.5C 449.536,464.038 446.703,461.371 444,458.5C 444.003,460.856 444.503,463.189 445.5,465.5C 442.113,467.685 439.446,470.519 437.5,474C 439.336,475.419 441.336,476.586 443.5,477.5C 444.127,478.417 444.461,479.417 444.5,480.5C 433.773,476.085 424.106,470.085 415.5,462.5C 416.167,462.5 416.833,462.5 417.5,462.5C 422.232,466.062 427.566,467.895 433.5,468C 436.061,464.527 439.061,461.527 442.5,459C 440.925,454.85 439.591,450.683 438.5,446.5 Z"/></g>
<g><path style="opacity:1" fill="#fa6609" d="M 606.5,454.5 C 606.586,455.496 606.252,456.329 605.5,457C 607.129,457.585 608.629,458.419 610,459.5C 612.231,457.8 614.731,456.8 617.5,456.5C 616.71,457.794 615.71,458.961 614.5,460C 608.642,464.164 602.475,467.997 596,471.5C 593.5,469.667 591,467.833 588.5,466C 589.93,464.114 591.597,462.447 593.5,461C 597.679,458.56 602.012,456.394 606.5,454.5 Z"/></g>
<g><path style="opacity:1" fill="#fa5f07" d="M 359.5,452.5 C 364.036,454.785 368.37,457.618 372.5,461C 374.345,462.128 376.345,462.628 378.5,462.5C 378.446,473.678 374.446,475.178 366.5,467C 366.833,466.667 367.167,466.333 367.5,466C 362.76,465.131 358.76,462.964 355.5,459.5C 357.011,458.498 358.678,457.831 360.5,457.5C 360.634,455.708 360.301,454.042 359.5,452.5 Z"/></g>
<g><path style="opacity:1" fill="#e76313" d="M 340.5,440.5 C 358.112,448.639 375.445,457.306 392.5,466.5C 392.631,467.239 392.464,467.906 392,468.5C 389.265,466.189 386.099,464.855 382.5,464.5C 381.35,466.267 382.017,467.433 384.5,468C 382.781,469.87 381.781,472.037 381.5,474.5C 379.801,474.527 378.467,475.194 377.5,476.5C 372.365,473.348 367.032,470.681 361.5,468.5C 359.973,468.573 358.973,467.906 358.5,466.5C 359.773,465.923 359.773,465.257 358.5,464.5C 355.569,461.987 352.569,459.654 349.5,457.5C 351.315,458.63 353.315,459.296 355.5,459.5C 358.76,462.964 362.76,465.131 367.5,466C 367.167,466.333 366.833,466.667 366.5,467C 374.446,475.178 378.446,473.678 378.5,462.5C 376.345,462.628 374.345,462.128 372.5,461C 368.37,457.618 364.036,454.785 359.5,452.5C 358.448,452.649 357.448,452.483 356.5,452C 353.986,449.722 351.319,447.722 348.5,446C 346.866,445.506 345.199,445.34 343.5,445.5C 343.5,444.5 343.5,443.5 343.5,442.5C 341.821,442.715 340.821,442.048 340.5,440.5 Z"/></g>
<g><path style="opacity:1" fill="#ed6c15" d="M 615.5,448.5 C 613.37,451.737 610.37,453.737 606.5,454.5C 602.012,456.394 597.679,458.56 593.5,461C 591.597,462.447 589.93,464.114 588.5,466C 591,467.833 593.5,469.667 596,471.5C 602.475,467.997 608.642,464.164 614.5,460C 615.71,458.961 616.71,457.794 617.5,456.5C 618.833,456.5 620.167,456.5 621.5,456.5C 621.586,457.496 621.252,458.329 620.5,459C 615.349,461.996 610.349,465.162 605.5,468.5C 602.4,470.229 599.066,471.562 595.5,472.5C 593.516,472.383 591.85,473.05 590.5,474.5C 589.262,472.363 587.429,471.029 585,470.5C 584.023,467.183 584.856,464.516 587.5,462.5C 590.432,461.2 592.766,459.2 594.5,456.5C 595.965,455.263 597.632,454.263 599.5,453.5C 599.369,454.376 599.702,455.043 600.5,455.5C 605.663,453.417 610.663,451.084 615.5,448.5 Z"/></g>
<g><path style="opacity:0.745" fill="#e19b1f" d="M 452.5,436.5 C 453.794,437.29 454.961,438.29 456,439.5C 459.71,446.254 462.877,453.254 465.5,460.5C 464.5,460.5 463.5,460.5 462.5,460.5C 461.646,456.978 460.313,453.645 458.5,450.5C 457.833,449.833 457.167,449.167 456.5,448.5C 456.167,448.833 455.833,449.167 455.5,449.5C 459.954,459.104 461.954,469.104 461.5,479.5C 460.675,480.386 459.675,480.719 458.5,480.5C 458.433,479.041 458.766,477.708 459.5,476.5C 458.368,468.677 456.535,461.01 454,453.5C 450.761,446.023 447.261,438.69 443.5,431.5C 444.088,429.795 444.421,428.128 444.5,426.5C 447.186,429.903 449.853,433.236 452.5,436.5 Z"/></g>
<g><path style="opacity:0.255" fill="#c88021" d="M 594.5,456.5 C 592.766,459.2 590.432,461.2 587.5,462.5C 586.07,462.421 584.736,462.754 583.5,463.5C 579.154,466.849 574.821,470.183 570.5,473.5C 565.129,474.105 560.796,476.605 557.5,481C 554.689,482.825 551.689,484.158 548.5,485C 546.959,486.371 545.625,487.871 544.5,489.5C 539.712,492.287 534.712,494.621 529.5,496.5C 549.616,480.732 571.282,467.399 594.5,456.5 Z"/></g>
<g><path style="opacity:1" fill="#f5a21e" d="M 525.5,450.5 C 525.421,451.93 525.754,453.264 526.5,454.5C 524.923,456.558 523.923,458.892 523.5,461.5C 526.595,466.005 530.929,468.671 536.5,469.5C 540.858,467.495 545.191,465.495 549.5,463.5C 549.586,464.496 549.252,465.329 548.5,466C 544.655,467.42 541.322,469.587 538.5,472.5C 534.931,474.453 531.264,476.119 527.5,477.5C 524.868,475.937 522.535,476.27 520.5,478.5C 517.989,478.162 515.655,478.162 513.5,478.5C 512.548,476.955 512.215,475.288 512.5,473.5C 511.5,473.5 510.5,473.5 509.5,473.5C 514.087,465.258 519.42,457.591 525.5,450.5 Z"/></g>
<g><path style="opacity:1" fill="#fc7a0e" d="M 382.5,464.5 C 385.641,466.675 388.974,468.675 392.5,470.5C 394.984,472.483 397.317,474.65 399.5,477C 396.224,480.448 392.891,483.615 389.5,486.5C 388.022,486.762 386.689,486.429 385.5,485.5C 383.496,481.834 380.829,478.834 377.5,476.5C 378.467,475.194 379.801,474.527 381.5,474.5C 381.781,472.037 382.781,469.87 384.5,468C 382.017,467.433 381.35,466.267 382.5,464.5 Z"/></g>
<g><path style="opacity:1" fill="#f9b31f" d="M 465.5,460.5 C 466.833,463.833 468.167,467.167 469.5,470.5C 468.167,470.5 467.5,471.167 467.5,472.5C 466.284,474.847 466.284,477.347 467.5,480C 465.372,481.987 464.372,484.487 464.5,487.5C 463.5,487.5 462.5,487.5 461.5,487.5C 461.349,490.718 460.516,491.051 459,488.5C 458.601,488.728 458.435,489.062 458.5,489.5C 456.005,487.171 453.672,484.671 451.5,482C 449.655,480.872 447.655,480.372 445.5,480.5C 445.167,480.5 444.833,480.5 444.5,480.5C 444.461,479.417 444.127,478.417 443.5,477.5C 441.336,476.586 439.336,475.419 437.5,474C 439.446,470.519 442.113,467.685 445.5,465.5C 444.503,463.189 444.003,460.856 444,458.5C 446.703,461.371 449.536,464.038 452.5,466.5C 455.326,469.484 457.659,472.817 459.5,476.5C 458.766,477.708 458.433,479.041 458.5,480.5C 459.675,480.719 460.675,480.386 461.5,479.5C 461.954,469.104 459.954,459.104 455.5,449.5C 455.833,449.167 456.167,448.833 456.5,448.5C 457.167,449.167 457.833,449.833 458.5,450.5C 460.313,453.645 461.646,456.978 462.5,460.5C 463.5,460.5 464.5,460.5 465.5,460.5 Z"/></g>
<g><path style="opacity:1" fill="#fb8413" d="M 587.5,462.5 C 584.856,464.516 584.023,467.183 585,470.5C 587.429,471.029 589.262,472.363 590.5,474.5C 591.85,473.05 593.516,472.383 595.5,472.5C 590.463,477.539 585.129,482.206 579.5,486.5C 577.634,487.014 575.8,487.68 574,488.5C 570.108,485.798 566.275,482.965 562.5,480C 565.053,477.575 567.72,475.408 570.5,473.5C 574.821,470.183 579.154,466.849 583.5,463.5C 584.736,462.754 586.07,462.421 587.5,462.5 Z"/></g>
<g><path style="opacity:0.949" fill="#d87823" d="M 361.5,468.5 C 367.032,470.681 372.365,473.348 377.5,476.5C 380.829,478.834 383.496,481.834 385.5,485.5C 386.689,486.429 388.022,486.762 389.5,486.5C 390.922,488.512 392.255,490.512 393.5,492.5C 392.508,492.328 391.842,492.662 391.5,493.5C 381.475,485.137 371.475,476.804 361.5,468.5 Z"/></g>
<g><path style="opacity:1" fill="#f88b15" d="M 382.5,464.5 C 386.099,464.855 389.265,466.189 392,468.5C 392.464,467.906 392.631,467.239 392.5,466.5C 398.536,470.181 404.536,473.848 410.5,477.5C 410.586,478.496 410.252,479.329 409.5,480C 410.842,482.015 411.342,484.182 411,486.5C 408.688,489.646 406.188,492.646 403.5,495.5C 402.311,496.429 400.978,496.762 399.5,496.5C 397.795,494.808 395.795,493.475 393.5,492.5C 392.255,490.512 390.922,488.512 389.5,486.5C 392.891,483.615 396.224,480.448 399.5,477C 397.317,474.65 394.984,472.483 392.5,470.5C 388.974,468.675 385.641,466.675 382.5,464.5 Z"/></g>
<g><path style="opacity:0.988" fill="#f8b422" d="M 510.5,463.5 C 508.603,466.824 508.27,470.157 509.5,473.5C 510.5,473.5 511.5,473.5 512.5,473.5C 512.215,475.288 512.548,476.955 513.5,478.5C 515.655,478.162 517.989,478.162 520.5,478.5C 518.57,480.45 516.237,481.783 513.5,482.5C 513.741,484.886 513.075,486.886 511.5,488.5C 509.852,489.81 508.186,491.143 506.5,492.5C 505.772,490.807 504.772,489.307 503.5,488C 501.324,487.837 499.491,487.004 498,485.5C 498.511,482.791 499.345,480.124 500.5,477.5C 500.48,476.274 500.147,475.274 499.5,474.5C 499.337,472.143 499.503,469.81 500,467.5C 502.88,462.235 505.38,456.735 507.5,451C 508.332,450.312 508.998,450.479 509.5,451.5C 508.313,453.21 508.646,454.71 510.5,456C 509.284,458.653 509.284,461.153 510.5,463.5 Z"/></g>
<g><path style="opacity:0.396" fill="#cf8028" d="M 605.5,468.5 C 594.771,477.901 583.771,486.901 572.5,495.5C 574.458,492.208 576.791,489.208 579.5,486.5C 585.129,482.206 590.463,477.539 595.5,472.5C 599.066,471.562 602.4,470.229 605.5,468.5 Z"/></g>
<g><path style="opacity:1" fill="#fb9f19" d="M 410.5,477.5 C 411.167,477.5 411.5,477.833 411.5,478.5C 413.758,481.425 416.425,484.091 419.5,486.5C 419.369,487.239 419.536,487.906 420,488.5C 422.628,490.126 424.961,492.126 427,494.5C 427.315,495.908 426.982,497.241 426,498.5C 421.9,502.6 418.233,506.267 415,509.5C 412.557,508.97 410.39,507.97 408.5,506.5C 405.478,503.147 402.478,499.813 399.5,496.5C 400.978,496.762 402.311,496.429 403.5,495.5C 406.188,492.646 408.688,489.646 411,486.5C 411.342,484.182 410.842,482.015 409.5,480C 410.252,479.329 410.586,478.496 410.5,477.5 Z"/></g>
<g><path style="opacity:0.478" fill="#d0af30" d="M 469.5,470.5 C 469.343,471.873 469.51,473.207 470,474.5C 475.758,483.267 479.258,492.934 480.5,503.5C 477.122,495.337 473.289,487.337 469,479.5C 468.338,477.187 467.838,474.854 467.5,472.5C 467.5,471.167 468.167,470.5 469.5,470.5 Z"/></g>
<g><path style="opacity:1" fill="#fbb21d" d="M 544.5,489.5 C 543.251,491.136 541.584,492.303 539.5,493C 536.911,494.922 536.411,497.089 538,499.5C 538.333,498.833 538.667,498.167 539,497.5C 539.638,498.609 540.138,499.775 540.5,501C 539.144,502.567 538.477,504.4 538.5,506.5C 537.178,506.33 536.011,506.663 535,507.5C 532.039,512.292 528.539,516.625 524.5,520.5C 521.644,524.87 518.144,528.87 514,532.5C 508.031,543.616 500.197,552.949 490.5,560.5C 488.652,565.851 486.985,571.184 485.5,576.5C 486.167,571.833 486.833,567.167 487.5,562.5C 490.193,557.922 491.86,552.922 492.5,547.5C 493.5,547.5 494.5,547.5 495.5,547.5C 497.92,541.092 500.587,534.759 503.5,528.5C 507.788,522.876 512.454,517.543 517.5,512.5C 520.811,507.69 524.644,503.357 529,499.5C 529.483,498.552 529.649,497.552 529.5,496.5C 534.712,494.621 539.712,492.287 544.5,489.5 Z"/></g>
<g><path style="opacity:0.118" fill="#d09d2a" d="M 411.5,478.5 C 425.97,485.991 438.636,495.657 449.5,507.5C 446.333,507.076 443.999,505.41 442.5,502.5C 437.873,499.865 433.54,496.865 429.5,493.5C 426.167,491.167 422.833,488.833 419.5,486.5C 416.425,484.091 413.758,481.425 411.5,478.5 Z"/></g>
<g><path style="opacity:1" fill="#fbb61e" d="M 429.5,493.5 C 433.54,496.865 437.873,499.865 442.5,502.5C 443.999,505.41 446.333,507.076 449.5,507.5C 452.104,511.727 454.938,515.727 458,519.5C 459.154,520.743 460.488,521.743 462,522.5C 465.29,532.3 470.124,541.3 476.5,549.5C 477.552,555.483 479.218,561.15 481.5,566.5C 481.907,572.161 482.24,577.828 482.5,583.5C 481.263,575.5 479.43,567.5 477,559.5C 472.892,554.686 468.058,550.686 462.5,547.5C 459.369,542.59 455.035,539.09 449.5,537C 447.457,535.292 445.79,533.292 444.5,531C 441.316,530.175 438.816,528.342 437,525.5C 434.871,526.863 434.371,526.529 435.5,524.5C 432.033,520.534 427.867,517.534 423,515.5C 422.219,514.056 422.386,512.723 423.5,511.5C 426.565,510.101 427.565,507.934 426.5,505C 428.615,502.771 430.948,500.771 433.5,499C 431.072,497.982 429.738,496.148 429.5,493.5 Z"/></g>
<g><path style="opacity:0.788" fill="#bc8b2a" d="M 393.5,492.5 C 395.795,493.475 397.795,494.808 399.5,496.5C 402.478,499.813 405.478,503.147 408.5,506.5C 408.351,507.552 408.517,508.552 409,509.5C 410.72,510.384 411.886,511.717 412.5,513.5C 411.761,513.631 411.094,513.464 410.5,513C 404.045,506.563 397.712,500.063 391.5,493.5C 391.842,492.662 392.508,492.328 393.5,492.5 Z"/></g>
<g><path style="opacity:1" fill="#f9c422" d="M 499.5,474.5 C 500.147,475.274 500.48,476.274 500.5,477.5C 499.345,480.124 498.511,482.791 498,485.5C 499.491,487.004 501.324,487.837 503.5,488C 504.772,489.307 505.772,490.807 506.5,492.5C 508.186,491.143 509.852,489.81 511.5,488.5C 510.908,492.015 509.075,494.682 506,496.5C 505.623,502.142 503.789,507.142 500.5,511.5C 497.284,516.717 492.618,519.384 486.5,519.5C 487.231,511.777 488.398,504.11 490,496.5C 493.015,489.022 496.182,481.689 499.5,474.5 Z"/></g>
<g><path style="opacity:1" fill="#f9c822" d="M 467.5,472.5 C 467.838,474.854 468.338,477.187 469,479.5C 473.289,487.337 477.122,495.337 480.5,503.5C 481.03,508.887 481.03,514.22 480.5,519.5C 477.932,517.283 474.932,516.116 471.5,516C 469.667,514.833 468.167,513.333 467,511.5C 465.194,506.554 462.861,501.888 460,497.5C 458.921,494.937 458.421,492.271 458.5,489.5C 458.435,489.062 458.601,488.728 459,488.5C 460.516,491.051 461.349,490.718 461.5,487.5C 462.5,487.5 463.5,487.5 464.5,487.5C 464.372,484.487 465.372,481.987 467.5,480C 466.284,477.347 466.284,474.847 467.5,472.5 Z"/></g>
<g><path style="opacity:0.157" fill="#a07c46" d="M 575.5,515.5 C 574.205,514.969 573.538,513.636 573.5,511.5C 575.902,508.785 578.568,506.285 581.5,504C 583.259,503.202 584.926,503.369 586.5,504.5C 582.994,508.401 579.327,512.068 575.5,515.5 Z"/></g>
<g><path style="opacity:0.129" fill="#a8874a" d="M 412.5,527.5 C 412.843,529.483 412.176,530.817 410.5,531.5C 400.755,522.93 391.089,514.096 381.5,505C 382.593,503.635 383.926,503.301 385.5,504C 394.946,511.379 403.946,519.212 412.5,527.5 Z"/></g>
<g><path style="opacity:0.518" fill="#d6b52f" d="M 497.5,474.5 C 498.167,474.5 498.833,474.5 499.5,474.5C 496.182,481.689 493.015,489.022 490,496.5C 488.398,504.11 487.231,511.777 486.5,519.5C 492.618,519.384 497.284,516.717 500.5,511.5C 503.789,507.142 505.623,502.142 506,496.5C 509.075,494.682 510.908,492.015 511.5,488.5C 513.075,486.886 513.741,484.886 513.5,482.5C 516.237,481.783 518.57,480.45 520.5,478.5C 522.535,476.27 524.868,475.937 527.5,477.5C 523.841,479.426 520.341,481.759 517,484.5C 511.222,494.646 505.889,504.979 501,515.5C 489.402,524.797 477.735,524.797 466,515.5C 460.95,508.067 456.95,500.067 454,491.5C 451.619,487.364 448.786,483.698 445.5,480.5C 447.655,480.372 449.655,480.872 451.5,482C 453.672,484.671 456.005,487.171 458.5,489.5C 458.421,492.271 458.921,494.937 460,497.5C 462.861,501.888 465.194,506.554 467,511.5C 468.167,513.333 469.667,514.833 471.5,516C 474.932,516.116 477.932,517.283 480.5,519.5C 481.03,514.22 481.03,508.887 480.5,503.5C 481.851,506.023 483.017,508.689 484,511.5C 485.603,501.028 488.603,491.028 493,481.5C 494.723,479.283 496.223,476.95 497.5,474.5 Z"/></g>
<g><path style="opacity:0.612" fill="#caa42c" d="M 529.5,496.5 C 529.649,497.552 529.483,498.552 529,499.5C 524.644,503.357 520.811,507.69 517.5,512.5C 512.036,516.13 507.369,520.63 503.5,526C 502.552,526.483 501.552,526.649 500.5,526.5C 504.046,520.775 508.213,515.441 513,510.5C 518.373,505.623 523.873,500.956 529.5,496.5 Z"/></g>
<g><path style="opacity:1" fill="#fba81c" d="M 419.5,486.5 C 422.833,488.833 426.167,491.167 429.5,493.5C 429.738,496.148 431.072,497.982 433.5,499C 430.948,500.771 428.615,502.771 426.5,505C 427.565,507.934 426.565,510.101 423.5,511.5C 422.386,512.723 422.219,514.056 423,515.5C 427.867,517.534 432.033,520.534 435.5,524.5C 434.371,526.529 434.871,526.863 437,525.5C 438.816,528.342 441.316,530.175 444.5,531C 445.79,533.292 447.457,535.292 449.5,537C 455.035,539.09 459.369,542.59 462.5,547.5C 468.058,550.686 472.892,554.686 477,559.5C 479.43,567.5 481.263,575.5 482.5,583.5C 482.5,587.833 482.5,592.167 482.5,596.5C 479.822,592.982 477.322,589.316 475,585.5C 473.89,583.963 472.39,583.297 470.5,583.5C 470.66,581.801 470.494,580.134 470,578.5C 467.762,576.691 466.595,574.358 466.5,571.5C 462.847,568.852 459.18,566.185 455.5,563.5C 454.5,562.5 453.5,561.5 452.5,560.5C 453.525,560.103 453.692,559.437 453,558.5C 450.089,553.249 446.756,548.249 443,543.5C 440.741,542.62 438.575,541.62 436.5,540.5C 433.438,531.433 427.771,524.433 419.5,519.5C 418.614,518.675 418.281,517.675 418.5,516.5C 416.315,516.296 414.315,515.63 412.5,514.5C 412.5,514.167 412.5,513.833 412.5,513.5C 411.886,511.717 410.72,510.384 409,509.5C 408.517,508.552 408.351,507.552 408.5,506.5C 410.39,507.97 412.557,508.97 415,509.5C 418.233,506.267 421.9,502.6 426,498.5C 426.982,497.241 427.315,495.908 427,494.5C 424.961,492.126 422.628,490.126 420,488.5C 419.536,487.906 419.369,487.239 419.5,486.5 Z"/></g>
<g><path style="opacity:0.216" fill="#d88c36" d="M 573.5,511.5 C 573.538,513.636 574.205,514.969 575.5,515.5C 566.089,522.928 557.089,530.928 548.5,539.5C 548.532,537.381 547.532,536.048 545.5,535.5C 554.452,527.029 563.785,519.029 573.5,511.5 Z"/></g>
<g><path style="opacity:0.678" fill="#cb982b" d="M 412.5,514.5 C 414.315,515.63 416.315,516.296 418.5,516.5C 418.281,517.675 418.614,518.675 419.5,519.5C 427.771,524.433 433.438,531.433 436.5,540.5C 428.16,532.16 420.16,523.493 412.5,514.5 Z"/></g>
<g><path style="opacity:0.792" fill="#d49527" d="M 572.5,495.5 C 561.86,505.977 551.693,516.977 542,528.5C 540.074,530.539 537.907,532.206 535.5,533.5C 535.343,532.127 535.51,530.793 536,529.5C 542.877,523.439 549.544,517.105 556,510.5C 557.667,508.167 559.333,505.833 561,503.5C 563.978,501.689 566.478,499.356 568.5,496.5C 569.736,495.754 571.07,495.421 572.5,495.5 Z"/></g>
<g><path style="opacity:0.663" fill="#cd942c" d="M 436.5,540.5 C 438.575,541.62 440.741,542.62 443,543.5C 446.756,548.249 450.089,553.249 453,558.5C 453.692,559.437 453.525,560.103 452.5,560.5C 446.787,554.122 441.453,547.455 436.5,540.5 Z"/></g>
<g><path style="opacity:0.959" fill="#dfae2a" d="M 449.5,507.5 C 467.564,522.772 479.064,542.106 484,565.5C 486.307,551.057 491.807,538.057 500.5,526.5C 501.552,526.649 502.552,526.483 503.5,526C 507.369,520.63 512.036,516.13 517.5,512.5C 512.454,517.543 507.788,522.876 503.5,528.5C 500.587,534.759 497.92,541.092 495.5,547.5C 494.5,547.5 493.5,547.5 492.5,547.5C 491.86,552.922 490.193,557.922 487.5,562.5C 486.359,564.667 485.359,567 484.5,569.5C 483.416,568.335 482.583,567.002 482,565.5C 481.601,565.728 481.435,566.062 481.5,566.5C 479.218,561.15 477.552,555.483 476.5,549.5C 470.124,541.3 465.29,532.3 462,522.5C 460.488,521.743 459.154,520.743 458,519.5C 454.938,515.727 452.104,511.727 449.5,507.5 Z"/></g>
<g><path style="opacity:1" fill="#fba51a" d="M 570.5,473.5 C 567.72,475.408 565.053,477.575 562.5,480C 566.275,482.965 570.108,485.798 574,488.5C 575.8,487.68 577.634,487.014 579.5,486.5C 576.791,489.208 574.458,492.208 572.5,495.5C 571.07,495.421 569.736,495.754 568.5,496.5C 566.478,499.356 563.978,501.689 561,503.5C 559.333,505.833 557.667,508.167 556,510.5C 549.544,517.105 542.877,523.439 536,529.5C 535.51,530.793 535.343,532.127 535.5,533.5C 533.405,534.412 531.405,535.579 529.5,537C 523.814,542.876 518.98,549.376 515,556.5C 508.139,562.019 502.805,568.686 499,576.5C 494.093,581.302 490.426,586.969 488,593.5C 486.989,594.337 485.822,594.67 484.5,594.5C 484.701,588.491 485.034,582.491 485.5,576.5C 486.985,571.184 488.652,565.851 490.5,560.5C 500.197,552.949 508.031,543.616 514,532.5C 518.144,528.87 521.644,524.87 524.5,520.5C 528.539,516.625 532.039,512.292 535,507.5C 536.011,506.663 537.178,506.33 538.5,506.5C 538.477,504.4 539.144,502.567 540.5,501C 540.138,499.775 539.638,498.609 539,497.5C 538.667,498.167 538.333,498.833 538,499.5C 536.411,497.089 536.911,494.922 539.5,493C 541.584,492.303 543.251,491.136 544.5,489.5C 545.625,487.871 546.959,486.371 548.5,485C 551.689,484.158 554.689,482.825 557.5,481C 560.796,476.605 565.129,474.105 570.5,473.5 Z"/></g>
<g><path style="opacity:0.749" fill="#ec9921" d="M 545.5,535.5 C 547.532,536.048 548.532,537.381 548.5,539.5C 527.513,558.196 508.846,578.862 492.5,601.5C 492.657,600.127 492.49,598.793 492,597.5C 491.282,598.451 490.449,598.617 489.5,598C 490.337,596.989 490.67,595.822 490.5,594.5C 492.138,592.104 493.304,589.438 494,586.5C 495.299,586.034 496.799,586.034 498.5,586.5C 498.5,585.167 498.5,583.833 498.5,582.5C 498.5,582.167 498.5,581.833 498.5,581.5C 498.328,580.508 498.662,579.842 499.5,579.5C 500.167,579.5 500.5,579.167 500.5,578.5C 501.167,578.5 501.5,578.167 501.5,577.5C 503.262,576.738 504.262,575.404 504.5,573.5C 505.167,573.5 505.5,573.167 505.5,572.5C 518.206,559.459 531.54,547.126 545.5,535.5 Z"/></g>
<g><path style="opacity:0.447" fill="#d99827" d="M 535.5,533.5 C 534.988,536.848 533.155,539.181 530,540.5C 522.741,550.1 515.074,559.433 507,568.5C 506.209,569.745 505.709,571.078 505.5,572.5C 504.833,572.5 504.5,572.833 504.5,573.5C 502.738,574.262 501.738,575.596 501.5,577.5C 500.833,577.5 500.5,577.833 500.5,578.5C 499.833,578.5 499.5,578.833 499.5,579.5C 498.662,579.842 498.328,580.508 498.5,581.5C 497.167,581.833 497.167,582.167 498.5,582.5C 498.5,583.833 498.5,585.167 498.5,586.5C 496.799,586.034 495.299,586.034 494,586.5C 493.304,589.438 492.138,592.104 490.5,594.5C 488.549,595.282 487.049,596.616 486,598.5C 485.29,597.027 484.124,596.36 482.5,596.5C 482.5,592.167 482.5,587.833 482.5,583.5C 482.24,577.828 481.907,572.161 481.5,566.5C 481.435,566.062 481.601,565.728 482,565.5C 482.583,567.002 483.416,568.335 484.5,569.5C 485.359,567 486.359,564.667 487.5,562.5C 486.833,567.167 486.167,571.833 485.5,576.5C 485.034,582.491 484.701,588.491 484.5,594.5C 485.822,594.67 486.989,594.337 488,593.5C 490.426,586.969 494.093,581.302 499,576.5C 502.805,568.686 508.139,562.019 515,556.5C 518.98,549.376 523.814,542.876 529.5,537C 531.405,535.579 533.405,534.412 535.5,533.5 Z"/></g>
<g><path style="opacity:0.897" fill="#e59523" d="M 412.5,527.5 C 430.261,542.935 447.261,558.935 463.5,575.5C 460.844,571.529 458.177,567.529 455.5,563.5C 459.18,566.185 462.847,568.852 466.5,571.5C 466.595,574.358 467.762,576.691 470,578.5C 470.494,580.134 470.66,581.801 470.5,583.5C 472.39,583.297 473.89,583.963 475,585.5C 477.322,589.316 479.822,592.982 482.5,596.5C 482.631,597.376 482.298,598.043 481.5,598.5C 480.059,597.135 478.726,595.635 477.5,594C 475.481,593.55 473.648,592.717 472,591.5C 472.284,593.679 472.117,595.679 471.5,597.5C 452.497,574.069 432.164,552.069 410.5,531.5C 412.176,530.817 412.843,529.483 412.5,527.5 Z M 463.5,575.5 C 464.906,575.973 465.573,576.973 465.5,578.5C 464.094,578.027 463.427,577.027 463.5,575.5 Z"/></g>
<g><path style="opacity:0.897" fill="#f4901c" d="M 482.5,596.5 C 484.124,596.36 485.29,597.027 486,598.5C 487.049,596.616 488.549,595.282 490.5,594.5C 490.67,595.822 490.337,596.989 489.5,598C 490.449,598.617 491.282,598.451 492,597.5C 492.49,598.793 492.657,600.127 492.5,601.5C 490.551,610.997 488.218,620.331 485.5,629.5C 484.07,629.579 482.736,629.246 481.5,628.5C 479.362,621.585 477.529,614.585 476,607.5C 474.231,604.294 472.731,600.961 471.5,597.5C 472.117,595.679 472.284,593.679 472,591.5C 473.648,592.717 475.481,593.55 477.5,594C 478.726,595.635 480.059,597.135 481.5,598.5C 482.298,598.043 482.631,597.376 482.5,596.5 Z"/></g>
<g><path style="opacity:0.999" fill="#f13e0b" d="M 370.5,643.5 C 385.852,644.036 396.352,651.369 402,665.5C 406.472,684.855 399.639,698.021 381.5,705C 366.283,708.376 354.116,703.876 345,691.5C 335.914,666.001 344.414,650.001 370.5,643.5 Z M 379.5,693.5 C 374.5,694.833 369.5,694.833 364.5,693.5C 353.008,687.469 349.508,678.136 354,665.5C 362.294,654.943 372.461,652.776 384.5,659C 395.167,669.667 395.167,680.333 384.5,691C 382.807,691.847 381.14,692.68 379.5,693.5 Z"/></g>
<g><path style="opacity:0.998" fill="#ef3d0a" d="M 637.5,645.5 C 640.898,645.18 644.232,645.513 647.5,646.5C 652.449,651.04 656.949,656.04 661,661.5C 662.413,663.414 664.247,664.747 666.5,665.5C 673.319,659.181 679.986,652.681 686.5,646C 690.152,645.501 693.818,645.335 697.5,645.5C 697.785,647.288 697.452,648.955 696.5,650.5C 688.971,658.195 681.637,666.028 674.5,674C 682.082,682.584 689.915,691.084 698,699.5C 698.494,701.134 698.66,702.801 698.5,704.5C 694.818,704.665 691.152,704.499 687.5,704C 680.128,697.047 673.295,689.547 667,681.5C 659.524,688.644 652.357,696.144 645.5,704C 641.514,704.499 637.514,704.666 633.5,704.5C 633.215,702.712 633.548,701.045 634.5,699.5C 642.625,690.874 650.958,682.374 659.5,674C 651.654,666.454 644.154,658.621 637,650.5C 636.36,648.735 636.527,647.068 637.5,645.5 Z"/></g>
<g><path style="opacity:0.02" fill="#d43b0e" d="M 283.5,647.5 C 284.167,647.5 284.833,647.5 285.5,647.5C 285.333,661.171 285.5,674.837 286,688.5C 286.722,693.611 289.222,697.611 293.5,700.5C 296.714,700.95 299.381,702.283 301.5,704.5C 292.69,704.174 286.857,699.841 284,691.5C 283.5,676.837 283.333,662.17 283.5,647.5 Z"/></g>
<g><path style="opacity:1" fill="#f83903" d="M 285.5,647.5 C 287.833,647.5 290.167,647.5 292.5,647.5C 292.5,660.833 292.5,674.167 292.5,687.5C 293.5,687.5 294.5,687.5 295.5,687.5C 295.452,690.292 296.785,692.125 299.5,693C 309.828,693.5 320.161,693.666 330.5,693.5C 330.5,697.167 330.5,700.833 330.5,704.5C 320.833,704.5 311.167,704.5 301.5,704.5C 299.381,702.283 296.714,700.95 293.5,700.5C 289.222,697.611 286.722,693.611 286,688.5C 285.5,674.837 285.333,661.171 285.5,647.5 Z"/></g>
<g><path style="opacity:1" fill="#e56216" d="M 507.5,654.5 C 504.972,653.977 502.639,652.977 500.5,651.5C 498.234,651.931 496.734,653.264 496,655.5C 495.703,658.914 495.036,662.247 494,665.5C 493.814,678.242 493.314,690.908 492.5,703.5C 491.338,684.671 491.171,665.671 492,646.5C 499.706,644.246 504.873,646.913 507.5,654.5 Z"/></g>
<g><path style="opacity:0.114" fill="#c84721" d="M 295.5,687.5 C 294.5,687.5 293.5,687.5 292.5,687.5C 292.5,674.167 292.5,660.833 292.5,647.5C 290.167,647.5 287.833,647.5 285.5,647.5C 284.833,647.5 284.167,647.5 283.5,647.5C 283.611,646.883 283.944,646.383 284.5,646C 287.76,645.216 290.927,645.383 294,646.5C 294.184,660.241 294.684,673.908 295.5,687.5 Z"/></g>
<g><path style="opacity:1" fill="#f53a05" d="M 184.5,654.5 C 185.885,655.614 187.385,656.614 189,657.5C 198.584,672.575 196.751,686.075 183.5,698C 181.975,699.009 180.308,699.509 178.5,699.5C 169.224,701.775 160.557,700.608 152.5,696C 150.785,693.626 148.785,691.46 146.5,689.5C 138.333,671.911 143,659.411 160.5,652C 164.5,651.333 168.5,651.333 172.5,652C 176.494,652.945 180.494,653.778 184.5,654.5 Z M 180.5,667.5 C 183.488,673.913 182.822,679.913 178.5,685.5C 170.745,692.408 163.245,692.074 156,684.5C 154.718,681.46 153.218,678.627 151.5,676C 153.071,672.929 154.571,669.762 156,666.5C 164.478,659.572 172.644,659.906 180.5,667.5 Z"/></g>
<g><path style="opacity:1" fill="#f43c08" d="M 841.5,672.5 C 841.5,674.167 841.5,675.833 841.5,677.5C 840.141,678.007 839.141,679.007 838.5,680.5C 833.473,695.861 822.807,702.361 806.5,700C 789.428,689.985 785.762,676.152 795.5,658.5C 805.243,650.962 815.91,649.462 827.5,654C 831.699,659.555 835.032,665.722 837.5,672.5C 838.808,673.626 840.142,673.626 841.5,672.5 Z M 809.5,661.5 C 825.526,661.129 831.026,668.463 826,683.5C 819.248,691.6 811.748,692.433 803.5,686C 797.97,679.818 797.47,673.318 802,666.5C 804.426,664.548 806.926,662.881 809.5,661.5 Z"/></g>
<g><path style="opacity:0.999" fill="#ed5413" d="M 477.5,682.5 C 476.25,682.423 475.417,681.756 475,680.5C 475.013,674.945 474.013,669.612 472,664.5C 470.846,663.257 469.512,662.257 468,661.5C 469.122,667.404 469.455,673.404 469,679.5C 467.714,682.405 466.714,685.405 466,688.5C 464.559,689.87 462.892,690.87 461,691.5C 460.536,690.906 460.369,690.239 460.5,689.5C 467.711,680.946 468.211,671.946 462,662.5C 453.279,654.473 443.779,653.473 433.5,659.5C 432.355,658.207 432.689,657.041 434.5,656C 442.413,652.883 450.413,652.717 458.5,655.5C 461.282,655.141 461.948,653.808 460.5,651.5C 455.134,648.918 449.468,647.418 443.5,647C 442.748,646.329 442.414,645.496 442.5,644.5C 459.89,643.281 471.39,650.948 477,667.5C 477.499,672.489 477.666,677.489 477.5,682.5 Z"/></g>
<g><path style="opacity:0.984" fill="#f73d03" d="M 537.5,646.5 C 539.948,647.473 542.615,647.806 545.5,647.5C 545.5,665.833 545.5,684.167 545.5,702.5C 543.143,702.663 540.81,702.497 538.5,702C 537.949,698.911 536.783,696.078 535,693.5C 533.829,692.107 532.329,691.273 530.5,691C 528.826,686.659 525.826,683.659 521.5,682C 520.385,679.869 519.052,678.035 517.5,676.5C 516.117,673.539 514.45,670.706 512.5,668C 515.394,668.754 518.394,669.587 521.5,670.5C 526.309,675.383 531.142,680.383 536,685.5C 536.169,672.327 536.669,659.327 537.5,646.5 Z"/></g>
<g><path style="opacity:0.118" fill="#e74111" d="M 841.5,672.5 C 840.142,673.626 838.808,673.626 837.5,672.5C 835.032,665.722 831.699,659.555 827.5,654C 815.91,649.462 805.243,650.962 795.5,658.5C 785.762,676.152 789.428,689.985 806.5,700C 822.807,702.361 833.473,695.861 838.5,680.5C 839.141,679.007 840.141,678.007 841.5,677.5C 836.255,698.636 822.922,706.136 801.5,700C 787.514,691.951 783.014,680.117 788,664.5C 796.961,649.375 809.795,644.875 826.5,651C 834.587,656.004 839.587,663.171 841.5,672.5 Z"/></g>
<g><path style="opacity:0.588" fill="#f4550a" d="M 507.5,654.5 C 509.392,655.702 511.226,657.035 513,658.5C 516.016,662.408 518.85,666.408 521.5,670.5C 518.394,669.587 515.394,668.754 512.5,668C 514.45,670.706 516.117,673.539 517.5,676.5C 516.391,676.557 515.391,676.89 514.5,677.5C 510.687,673.486 507.187,669.153 504,664.5C 503.667,677.167 503.333,689.833 503,702.5C 501.475,703.72 499.641,704.387 497.5,704.5C 495.631,704.493 493.964,704.16 492.5,703.5C 493.314,690.908 493.814,678.242 494,665.5C 495.036,662.247 495.703,658.914 496,655.5C 496.734,653.264 498.234,651.931 500.5,651.5C 502.639,652.977 504.972,653.977 507.5,654.5 Z"/></g>
<g><path style="opacity:0.765" fill="#e64113" d="M 184.5,654.5 C 180.494,653.778 176.494,652.945 172.5,652C 168.5,651.333 164.5,651.333 160.5,652C 143,659.411 138.333,671.911 146.5,689.5C 148.785,691.46 150.785,693.626 152.5,696C 160.557,700.608 169.224,701.775 178.5,699.5C 162.788,705.195 150.621,700.862 142,686.5C 136.603,668.129 142.769,655.629 160.5,649C 167.336,648.039 174.003,648.705 180.5,651C 182.324,651.66 183.657,652.827 184.5,654.5 Z"/></g>
<g><path style="opacity:0.941" fill="#ea4a1b" d="M 180.5,667.5 C 172.644,659.906 164.478,659.572 156,666.5C 154.571,669.762 153.071,672.929 151.5,676C 153.218,678.627 154.718,681.46 156,684.5C 163.245,692.074 170.745,692.408 178.5,685.5C 177.039,688.255 174.705,690.088 171.5,691C 166.154,691.432 160.82,691.266 155.5,690.5C 152.08,686.074 150.08,680.907 149.5,675C 150.486,667.354 154.486,662.021 161.5,659C 166.167,658.333 170.833,658.333 175.5,659C 178.091,661.357 179.758,664.191 180.5,667.5 Z"/></g>
<g><path style="opacity:0.999" fill="#f24009" d="M 442.5,644.5 C 442.414,645.496 442.748,646.329 443.5,647C 449.468,647.418 455.134,648.918 460.5,651.5C 461.948,653.808 461.282,655.141 458.5,655.5C 450.413,652.717 442.413,652.883 434.5,656C 432.689,657.041 432.355,658.207 433.5,659.5C 424.9,669.006 424.4,679.006 432,689.5C 434.448,690.973 436.948,692.307 439.5,693.5C 439.5,694.5 439.5,695.5 439.5,696.5C 443.833,696.5 448.167,696.5 452.5,696.5C 452.5,695.5 452.5,694.5 452.5,693.5C 455.45,692.692 458.117,691.358 460.5,689.5C 460.369,690.239 460.536,690.906 461,691.5C 462.892,690.87 464.559,689.87 466,688.5C 466.714,685.405 467.714,682.405 469,679.5C 469.455,673.404 469.122,667.404 468,661.5C 469.512,662.257 470.846,663.257 472,664.5C 474.013,669.612 475.013,674.945 475,680.5C 475.417,681.756 476.25,682.423 477.5,682.5C 474.388,694.112 467.055,701.612 455.5,705C 431.877,708.356 418.21,698.356 414.5,675C 415.252,661.249 421.919,651.582 434.5,646C 437.063,644.921 439.729,644.421 442.5,644.5 Z"/></g>
<g><path style="opacity:0.999" fill="#f03d09" d="M 590.5,643.5 C 600.195,643.256 608.861,646.089 616.5,652C 620.039,655.387 621.372,659.553 620.5,664.5C 617.15,664.665 613.817,664.498 610.5,664C 608.232,659.673 604.565,657.006 599.5,656C 582.248,653.934 573.415,661.434 573,678.5C 579.034,693.859 589.867,698.359 605.5,692C 606.579,691.044 607.745,690.211 609,689.5C 609.498,686.518 609.665,683.518 609.5,680.5C 603.5,680.5 597.5,680.5 591.5,680.5C 590.994,676.993 591.66,673.826 593.5,671C 602.494,670.5 611.494,670.334 620.5,670.5C 620.666,678.174 620.5,685.841 620,693.5C 609.276,705.618 596.109,709.118 580.5,704C 563.5,694.823 558,680.99 564,662.5C 569.809,651.854 578.643,645.521 590.5,643.5 Z"/></g>
<g><path style="opacity:0.976" fill="#e7420f" d="M 514.5,677.5 C 515.391,676.89 516.391,676.557 517.5,676.5C 519.052,678.035 520.385,679.869 521.5,682C 525.826,683.659 528.826,686.659 530.5,691C 532.329,691.273 533.829,692.107 535,693.5C 536.783,696.078 537.949,698.911 538.5,702C 540.81,702.497 543.143,702.663 545.5,702.5C 545.5,684.167 545.5,665.833 545.5,647.5C 542.615,647.806 539.948,647.473 537.5,646.5C 540.565,645.182 543.731,645.182 547,646.5C 547.5,665.83 547.667,685.164 547.5,704.5C 544.482,704.665 541.482,704.498 538.5,704C 530.272,695.277 522.272,686.444 514.5,677.5 Z"/></g>
<g><path style="opacity:0.082" fill="#c75638" d="M 364.5,693.5 C 369.5,694.833 374.5,694.833 379.5,693.5C 379.047,694.458 378.381,695.292 377.5,696C 373.5,696.667 369.5,696.667 365.5,696C 364.748,695.329 364.414,694.496 364.5,693.5 Z"/></g>
<g><path style="opacity:0.122" fill="#c84c35" d="M 439.5,693.5 C 443.865,694.773 448.199,694.773 452.5,693.5C 452.5,694.5 452.5,695.5 452.5,696.5C 448.167,696.5 443.833,696.5 439.5,696.5C 439.5,695.5 439.5,694.5 439.5,693.5 Z"/></g>
</svg>
